<?xml version="1.0" encoding="utf-8"?>
<svg version="1.1" id="Layer_1" x="0px" y="0px" width="100%" viewBox="0 0 1024 1024" enable-background="new 0 0 1024 1024" xmlns="http://www.w3.org/2000/svg">
  <defs/>
  <g transform="matrix(1, 0, 0, 1, 0, -64.000061)">
    <g transform="matrix(1.322219, 0, 0, 1.211514, -53.490982, -48.280369)" style="transform-origin: 245.491px 304.28px;">
      <path opacity="1.000000" d="M 527.009 391.631 C 527.019 418.628 527.13 445.126 526.94 471.622 C 526.907 476.181 528.12 478.227 532.745 479.65 C 550.87 485.228 566.085 501.912 565.296 524.158 C 564.577 544.452 565.52 564.801 565.543 585.126 C 565.557 597.118 565.074 609.11 565.061 621.103 C 565.052 629.963 570.39 637.083 578.064 640.009 C 587.265 643.517 602.394 637.195 602.368 621.936 C 602.336 602.438 602.453 582.94 602.477 563.443 C 602.492 551.777 602.302 540.109 602.524 528.448 C 602.599 524.532 601.362 522.812 597.448 522.182 C 589.562 520.913 586.762 517.461 586.362 509.388 C 586.28 507.724 586.304 506.055 586.289 504.389 C 586.207 495.078 586.221 495.041 577.454 491.974 C 572.204 490.137 568.571 486.453 566.723 481.463 C 559.378 461.641 551.866 441.86 545.794 421.605 C 542.868 411.846 547.552 402.916 556.794 398.459 C 557.821 397.964 559.047 397.807 559.894 396.302 C 557.236 394.571 554.618 392.697 556.602 388.7 C 557.407 387.079 555.468 386.147 554.311 385.262 C 549.814 381.823 545.338 378.351 540.755 375.029 C 537.931 372.982 536.645 370.996 539.089 367.645 C 542.027 363.615 544.613 359.324 547.274 355.098 C 548.813 352.654 550.863 351.818 553.049 353.798 C 560.683 360.709 570.949 362.487 579.465 367.638 C 580.311 368.15 581.044 368.847 581.854 369.424 C 585.167 371.782 588.095 374.11 592.856 374.128 C 599.473 374.151 604.956 377.893 608.421 383.648 C 616.065 396.344 623.441 409.201 630.95 421.978 C 634.1 427.339 632.67 432.643 629.579 437.034 C 624.906 443.672 624.686 450.844 624.696 458.426 C 624.766 512.086 624.807 565.746 624.574 619.406 C 624.495 637.814 617.238 652.541 599.718 660.414 C 576.888 670.673 550.125 657.974 544.029 634.272 C 542.824 629.587 542.61 624.743 542.607 619.903 C 542.588 587.241 542.468 554.578 542.595 521.916 C 542.625 514.219 538.791 509.4 532.495 506.073 C 528.717 504.076 527.328 504.99 527.018 509.17 C 526.944 510.165 526.988 511.169 526.988 512.169 C 526.989 568.318 526.991 624.467 526.993 680.617 C 526.993 687.608 526.981 687.502 533.914 686.751 C 537.854 686.324 541.75 686.52 544.286 690.671 C 540.46 692.247 256.499 692.511 251.328 691.068 C 252.634 686.692 256.091 686.521 259.596 686.824 C 267.442 687.502 268.281 686.818 268.279 678.987 C 268.263 609.161 268.639 539.332 268.07 469.51 C 267.75 430.351 268.617 391.206 268.351 352.053 C 268.165 324.686 288.677 304.318 315.975 304.302 C 370.969 304.272 425.963 304.275 480.957 304.3 C 505.649 304.312 526.942 325.548 526.99 350.141 C 527.016 363.804 527.004 377.468 527.009 391.631 M 307.597 518.096 C 312.322 527.147 320.022 531.246 329.993 531.204 C 343.148 531.148 356.326 530.727 369.454 530.953 C 398.106 531.445 426.752 530.886 455.398 531.256 C 460.398 531.32 465.383 531.175 470.357 530.533 C 481.453 529.1 489.477 520.318 489.485 509.183 C 489.52 461.206 489.54 413.228 489.454 365.251 C 489.427 350.518 479.654 340.996 464.927 340.989 C 420.448 340.968 375.969 340.959 331.49 340.969 C 313.844 340.973 305.013 349.764 305.005 367.34 C 304.985 413.485 305.014 459.63 304.956 505.775 C 304.951 509.855 305.666 513.699 307.597 518.096 M 355.002 624.023 C 355.004 624.855 355.104 625.701 354.993 626.519 C 354.415 630.761 355.455 633.467 360.424 633.976 C 363.901 634.332 367.163 636.096 369.698 638.57 C 374.057 642.824 379.332 643.302 384.959 643.026 C 396.605 642.457 408.252 642.471 419.903 643.059 C 424.388 643.285 428.904 643.402 433.379 643.131 C 436.139 642.963 438.942 641.442 438.925 638.389 C 438.906 634.96 436.209 633.892 432.928 633.953 C 426.769 634.068 420.605 633.997 414.443 633.976 C 412.242 633.968 409.56 633.995 409.467 631.127 C 409.366 628.022 412.177 628.331 414.303 628.319 C 421.797 628.278 429.292 628.34 436.786 628.275 C 439.656 628.25 442.388 627.431 442.391 623.984 C 442.393 620.476 439.689 619.835 436.761 619.84 C 430.266 619.851 423.765 619.996 417.279 619.754 C 414.617 619.655 410.05 621.225 410.111 616.889 C 410.167 612.997 414.542 614.484 417.105 614.423 C 424.094 614.256 431.091 614.426 438.085 614.423 C 440.767 614.422 443.352 613.858 443.466 610.575 C 443.582 607.21 441.078 606.097 438.203 605.762 C 436.888 605.609 435.542 605.698 434.211 605.704 C 427.716 605.737 421.221 605.807 414.726 605.8 C 412.586 605.797 409.742 606.01 409.779 603.045 C 409.816 600.104 412.704 600.369 414.808 600.353 C 422.302 600.295 429.797 600.326 437.291 600.352 C 439.853 600.362 442.513 599.51 442.692 596.989 C 442.897 594.097 440.495 592.298 437.545 591.898 C 435.905 591.677 434.222 591.72 432.558 591.727 C 420.734 591.777 408.91 591.879 397.087 591.882 C 395.195 591.882 393.084 592.518 391.381 590.733 C 391.222 588.83 392.617 587.755 393.658 586.526 C 395.919 583.86 398.309 581.297 400.48 578.56 C 403.873 574.282 403.867 571.343 400.516 568.584 C 396.93 565.631 393.777 566.724 390.91 569.831 C 385.04 576.19 378.677 582.205 374.211 589.654 C 370.572 595.724 366.087 600.068 358.942 601.282 C 356.033 601.777 354.84 603.518 354.943 606.565 C 355.128 612.054 354.998 617.555 355.002 624.023 M 600.814 498.217 C 600.831 498.716 600.848 499.215 600.864 499.714 C 600.964 502.841 600.334 506.318 605.331 506.282 C 610.738 506.244 609.277 502.275 609.242 499.471 C 609.031 482.672 608.667 465.873 608.3 449.076 C 608.166 442.954 609.335 437.119 612.373 431.825 C 613.896 429.171 613.864 426.96 612.364 424.422 C 606.526 414.545 600.783 404.612 594.973 394.719 C 592.148 389.909 586.356 390.129 582.281 387.416 C 581.988 387.221 581.069 387.733 580.582 388.101 C 576.738 391.008 574.667 399.405 576.902 403.796 C 581.806 413.43 586.31 423.329 592.001 432.483 C 597.456 441.259 598.952 450.474 599.077 460.472 C 599.229 472.758 600.153 485.034 600.814 498.217 M 572.103 450.801 C 576.131 459.136 576.371 469.286 584.102 476.031 C 584.46 467.039 585.423 457.765 582.245 449.697 C 577.471 437.573 571.589 425.737 564.265 414.604 C 559.717 417.808 561.668 420.93 562.62 423.743 C 565.602 432.548 568.767 441.291 572.103 450.801 M 565.332 379.335 C 566.797 381.229 568.196 381.458 569.306 379.056 C 569.912 377.746 570.739 376.041 568.644 375.437 C 565.982 374.671 565.32 376.582 565.332 379.335 Z" style="fill: rgb(255, 255, 255);" stroke="none"/>
      <path opacity="1.000000" d="M 337.65 702.322 C 406.301 702.322 474.451 702.322 542.602 702.324 C 550.098 702.324 550.616 703.044 548.46 710.412 C 545.235 721.438 536.767 726.816 522.393 726.827 C 472.905 726.867 423.417 726.885 373.929 726.891 C 339.604 726.894 305.278 726.897 270.953 726.831 C 257.684 726.806 248.504 719.892 245.961 708.26 C 244.85 703.18 245.441 702.343 250.671 702.337 C 279.497 702.306 308.324 702.322 337.65 702.322 Z" style="fill: rgb(255, 255, 255);" stroke="none"/>
      <path opacity="1.000000" d="M 457.869 419.613 C 459.266 425.712 461.054 431.122 464.806 435.867 C 467.713 439.545 467.71 444.32 467.699 448.795 C 467.676 458.285 468.171 467.885 466.896 477.227 C 465.955 484.126 462.909 490.973 459.891 497.235 C 456.92 503.399 449.632 502.714 443.697 501.498 C 438.63 500.459 435.104 497.325 435.158 491.387 C 435.194 487.478 432.953 485.934 429.037 485.95 C 407.713 486.032 386.388 486.017 365.065 485.916 C 361.56 485.899 360.018 486.927 359.884 490.731 C 359.609 498.541 354.544 502.128 344.814 501.973 C 336.34 501.838 332.516 498.383 332.352 490.457 C 332.295 487.686 332.202 485.187 329.415 483.574 C 327.672 482.566 327.278 480.699 327.282 478.779 C 327.313 466.632 327.279 454.484 327.446 442.339 C 327.469 440.595 327.984 438.46 329.072 437.193 C 337.327 427.573 338.103 415.191 341.106 403.809 C 346.118 384.812 349.302 381.528 369.011 381.217 C 388.658 380.908 408.308 380.754 427.957 380.713 C 442.086 380.684 447.869 385.181 451.77 398.63 C 453.761 405.496 455.776 412.355 457.869 419.613 M 406.15 424.381 C 416.297 424.393 426.445 424.319 436.591 424.46 C 440.557 424.515 441.597 423.162 440.335 419.353 C 438.507 413.839 437.083 408.192 435.43 402.618 C 434.368 399.035 432.058 397.002 428.165 397.005 C 407.372 397.022 386.579 397.045 365.785 397.006 C 362.284 396.999 360.14 398.511 359.229 401.876 C 357.711 407.489 356.093 413.076 354.646 418.707 C 353.321 423.869 353.807 424.442 359.239 424.442 C 374.543 424.445 389.847 424.411 406.15 424.381 M 378.797 456.017 C 375.405 456.119 372.611 457.612 372.532 461.086 C 372.466 463.989 374.956 466.053 377.874 466.093 C 391.035 466.275 404.199 466.275 417.36 466.155 C 419.805 466.133 422.071 464.706 422.278 462.008 C 422.514 458.924 420.3 457.15 417.629 456.271 C 416.258 455.82 414.661 455.993 413.166 455.991 C 402.002 455.978 390.837 455.992 378.797 456.017 M 351.229 444.763 C 345.212 445.669 341.422 449.879 342.075 454.934 C 342.664 459.491 348.185 463.748 352.855 463.244 C 357.257 462.77 360.877 458.993 361.118 454.624 C 361.398 449.557 357.979 445.84 351.229 444.763 M 438.857 462.072 C 442.639 463.927 446.179 463.871 449.375 460.797 C 452.151 458.128 453.115 454.968 451.809 451.312 C 450.336 447.191 447.375 444.523 442.973 444.477 C 439.018 444.435 436.003 446.699 434.598 450.439 C 432.879 455.015 434.063 458.888 438.857 462.072 Z" style="fill: rgb(255, 255, 255);" stroke="none"/>
    </g>
  </g>
</svg>